<svg id="visual" viewBox="0 0 960 540" width="960" height="540" xmlns="http://www.w3.org/2000/svg" xmlns:xlink="http://www.w3.org/1999/xlink" version="1.1"><rect x="0" y="0" width="960" height="540" fill="#D2CE9D"></rect><defs><linearGradient id="grad1_0" x1="43.8%" y1="0%" x2="100%" y2="100%"><stop offset="14.444444444444446%" stop-color="#d2ce9d" stop-opacity="1"></stop><stop offset="85.55555555555554%" stop-color="#d2ce9d" stop-opacity="1"></stop></linearGradient></defs><defs><linearGradient id="grad2_0" x1="0%" y1="0%" x2="56.3%" y2="100%"><stop offset="14.444444444444446%" stop-color="#d2ce9d" stop-opacity="1"></stop><stop offset="85.55555555555554%" stop-color="#d2ce9d" stop-opacity="1"></stop></linearGradient></defs><g transform="translate(960, 0)"><path d="M0 270C-18.3 213.3 -36.6 156.6 -81.5 141.2C-126.4 125.8 -198 151.6 -233.8 135C-269.7 118.4 -269.8 59.2 -270 0L0 0Z" fill="#628F6C"></path></g><g transform="translate(0, 540)"><path d="M0 -270C30.8 -235 61.6 -200 105 -181.9C148.4 -163.7 204.2 -162.5 233.8 -135C263.4 -107.5 266.7 -53.8 270 0L0 0Z" fill="#628F6C"></path></g></svg>