<svg id="visual" viewBox="0 0 960 540" width="960" height="540" xmlns="http://www.w3.org/2000/svg" xmlns:xlink="http://www.w3.org/1999/xlink" version="1.1"><rect x="0" y="0" width="960" height="540" fill="#D2CE9D"></rect><defs><linearGradient id="grad1_0" x1="43.8%" y1="0%" x2="100%" y2="100%"><stop offset="14.444444444444446%" stop-color="#628f6c" stop-opacity="1"></stop><stop offset="85.55555555555554%" stop-color="#628f6c" stop-opacity="1"></stop></linearGradient></defs><defs><linearGradient id="grad1_1" x1="43.8%" y1="0%" x2="100%" y2="100%"><stop offset="14.444444444444446%" stop-color="#628f6c" stop-opacity="1"></stop><stop offset="85.55555555555554%" stop-color="#729871" stop-opacity="1"></stop></linearGradient></defs><defs><linearGradient id="grad1_2" x1="43.8%" y1="0%" x2="100%" y2="100%"><stop offset="14.444444444444446%" stop-color="#81a177" stop-opacity="1"></stop><stop offset="85.55555555555554%" stop-color="#729871" stop-opacity="1"></stop></linearGradient></defs><defs><linearGradient id="grad1_3" x1="43.8%" y1="0%" x2="100%" y2="100%"><stop offset="14.444444444444446%" stop-color="#81a177" stop-opacity="1"></stop><stop offset="85.55555555555554%" stop-color="#91aa7e" stop-opacity="1"></stop></linearGradient></defs><defs><linearGradient id="grad1_4" x1="43.8%" y1="0%" x2="100%" y2="100%"><stop offset="14.444444444444446%" stop-color="#a1b384" stop-opacity="1"></stop><stop offset="85.55555555555554%" stop-color="#91aa7e" stop-opacity="1"></stop></linearGradient></defs><defs><linearGradient id="grad1_5" x1="43.8%" y1="0%" x2="100%" y2="100%"><stop offset="14.444444444444446%" stop-color="#a1b384" stop-opacity="1"></stop><stop offset="85.55555555555554%" stop-color="#b2bc8c" stop-opacity="1"></stop></linearGradient></defs><defs><linearGradient id="grad1_6" x1="43.8%" y1="0%" x2="100%" y2="100%"><stop offset="14.444444444444446%" stop-color="#c2c594" stop-opacity="1"></stop><stop offset="85.55555555555554%" stop-color="#b2bc8c" stop-opacity="1"></stop></linearGradient></defs><defs><linearGradient id="grad1_7" x1="43.8%" y1="0%" x2="100%" y2="100%"><stop offset="14.444444444444446%" stop-color="#c2c594" stop-opacity="1"></stop><stop offset="85.55555555555554%" stop-color="#d2ce9d" stop-opacity="1"></stop></linearGradient></defs><defs><linearGradient id="grad2_0" x1="0%" y1="0%" x2="56.3%" y2="100%"><stop offset="14.444444444444446%" stop-color="#628f6c" stop-opacity="1"></stop><stop offset="85.55555555555554%" stop-color="#628f6c" stop-opacity="1"></stop></linearGradient></defs><defs><linearGradient id="grad2_1" x1="0%" y1="0%" x2="56.3%" y2="100%"><stop offset="14.444444444444446%" stop-color="#729871" stop-opacity="1"></stop><stop offset="85.55555555555554%" stop-color="#628f6c" stop-opacity="1"></stop></linearGradient></defs><defs><linearGradient id="grad2_2" x1="0%" y1="0%" x2="56.3%" y2="100%"><stop offset="14.444444444444446%" stop-color="#729871" stop-opacity="1"></stop><stop offset="85.55555555555554%" stop-color="#81a177" stop-opacity="1"></stop></linearGradient></defs><defs><linearGradient id="grad2_3" x1="0%" y1="0%" x2="56.3%" y2="100%"><stop offset="14.444444444444446%" stop-color="#91aa7e" stop-opacity="1"></stop><stop offset="85.55555555555554%" stop-color="#81a177" stop-opacity="1"></stop></linearGradient></defs><defs><linearGradient id="grad2_4" x1="0%" y1="0%" x2="56.3%" y2="100%"><stop offset="14.444444444444446%" stop-color="#91aa7e" stop-opacity="1"></stop><stop offset="85.55555555555554%" stop-color="#a1b384" stop-opacity="1"></stop></linearGradient></defs><defs><linearGradient id="grad2_5" x1="0%" y1="0%" x2="56.3%" y2="100%"><stop offset="14.444444444444446%" stop-color="#b2bc8c" stop-opacity="1"></stop><stop offset="85.55555555555554%" stop-color="#a1b384" stop-opacity="1"></stop></linearGradient></defs><defs><linearGradient id="grad2_6" x1="0%" y1="0%" x2="56.3%" y2="100%"><stop offset="14.444444444444446%" stop-color="#b2bc8c" stop-opacity="1"></stop><stop offset="85.55555555555554%" stop-color="#c2c594" stop-opacity="1"></stop></linearGradient></defs><defs><linearGradient id="grad2_7" x1="0%" y1="0%" x2="56.3%" y2="100%"><stop offset="14.444444444444446%" stop-color="#d2ce9d" stop-opacity="1"></stop><stop offset="85.55555555555554%" stop-color="#c2c594" stop-opacity="1"></stop></linearGradient></defs><g transform="translate(960, 0)"><path d="M0 540C-25.9 408.1 -51.8 276.2 -143 247.7C-234.2 219.2 -390.6 294 -467.7 270C-544.7 246 -542.3 123 -540 0L0 0Z" fill="#caca98"></path><path d="M0 472.5C-22.7 357.1 -45.3 241.7 -125.1 216.7C-204.9 191.8 -341.8 257.3 -409.2 236.3C-476.6 215.2 -474.6 107.6 -472.5 0L0 0Z" fill="#bac190"></path><path d="M0 405C-19.4 306.1 -38.9 207.1 -107.2 185.8C-175.6 164.4 -293 220.5 -350.7 202.5C-408.5 184.5 -406.8 92.2 -405 0L0 0Z" fill="#a9b888"></path><path d="M0 337.5C-16.2 255.1 -32.4 172.6 -89.4 154.8C-146.4 137 -244.1 183.8 -292.3 168.8C-340.4 153.7 -339 76.9 -337.5 0L0 0Z" fill="#99af81"></path><path d="M0 270C-13 204 -25.9 138.1 -71.5 123.8C-117.1 109.6 -195.3 147 -233.8 135C-272.3 123 -271.2 61.5 -270 0L0 0Z" fill="#89a67a"></path><path d="M0 202.5C-9.7 153 -19.4 103.6 -53.6 92.9C-87.8 82.2 -146.5 110.3 -175.4 101.3C-204.3 92.2 -203.4 46.1 -202.5 0L0 0Z" fill="#7a9d74"></path><path d="M0 135C-6.5 102 -13 69 -35.7 61.9C-58.5 54.8 -97.7 73.5 -116.9 67.5C-136.2 61.5 -135.6 30.7 -135 0L0 0Z" fill="#6a946f"></path><path d="M0 67.5C-3.2 51 -6.5 34.5 -17.9 31C-29.3 27.4 -48.8 36.8 -58.5 33.8C-68.1 30.7 -67.8 15.4 -67.5 0L0 0Z" fill="#628f6c"></path></g><g transform="translate(0, 540)"><path d="M0 -540C59.5 -466.3 119 -392.6 206 -356.8C293 -321 407.4 -323.1 467.7 -270C527.9 -216.9 533.9 -108.4 540 0L0 0Z" fill="#caca98"></path><path d="M0 -472.5C52.1 -408 104.1 -343.5 180.2 -312.2C256.4 -280.9 356.5 -282.8 409.2 -236.3C461.9 -189.7 467.2 -94.9 472.5 0L0 0Z" fill="#bac190"></path><path d="M0 -405C44.6 -349.7 89.3 -294.4 154.5 -267.6C219.7 -240.8 305.6 -242.4 350.7 -202.5C395.9 -162.6 400.5 -81.3 405 0L0 0Z" fill="#a9b888"></path><path d="M0 -337.5C37.2 -291.4 74.4 -245.4 128.7 -223C183.1 -200.6 254.6 -202 292.3 -168.8C329.9 -135.5 333.7 -67.8 337.5 0L0 0Z" fill="#99af81"></path><path d="M0 -270C29.8 -233.1 59.5 -196.3 103 -178.4C146.5 -160.5 203.7 -161.6 233.8 -135C263.9 -108.4 267 -54.2 270 0L0 0Z" fill="#89a67a"></path><path d="M0 -202.5C22.3 -174.9 44.6 -147.2 77.2 -133.8C109.9 -120.4 152.8 -121.2 175.4 -101.3C198 -81.3 200.2 -40.7 202.5 0L0 0Z" fill="#7a9d74"></path><path d="M0 -135C14.9 -116.6 29.8 -98.1 51.5 -89.2C73.2 -80.3 101.9 -80.8 116.9 -67.5C132 -54.2 133.5 -27.1 135 0L0 0Z" fill="#6a946f"></path><path d="M0 -67.5C7.4 -58.3 14.9 -49.1 25.7 -44.6C36.6 -40.1 50.9 -40.4 58.5 -33.8C66 -27.1 66.7 -13.6 67.5 0L0 0Z" fill="#628f6c"></path></g></svg>